<?xml version="1.0" encoding="UTF-8"?>
<svg width="195px" height="195px" viewBox="0 0 195 195" version="1.1" xmlns="http://www.w3.org/2000/svg" xmlns:xlink="http://www.w3.org/1999/xlink">
    <!-- Generator: Sketch 43.1 (39012) - http://www.bohemiancoding.com/sketch -->
    <title>Combined Shape</title>
    <desc>Created with Sketch.</desc>
    <defs></defs>
    <g id="Page-1" stroke="none" stroke-width="1" fill="none" fill-rule="evenodd">
        <g id="Artboard" transform="translate(-3.000000, -3.000000)" fill-rule="nonzero" fill="#000000">
            <path d="M194.404911,123.785759 C181.446013,175.738535 128.822462,207.357922 76.8575637,194.403065 C24.9142167,181.449555 -6.70921184,128.827351 6.25238,76.8772694 C19.2018494,24.9191061 71.8294412,-6.70432245 123.776829,6.24918776 C175.734992,19.202698 207.357074,71.8289429 194.404911,123.785759 Z M143.073074,86.5105755 C145.003237,73.6042082 135.175972,66.6688204 121.740258,62.0407388 L126.097604,44.5601673 L115.458135,41.9080449 L111.213931,58.9279633 C108.413645,58.230249 105.543319,57.5729429 102.686462,56.9223714 L106.957604,39.7893102 L96.3248698,37.1371878 L91.9621351,54.6150653 C89.6467473,54.0870653 87.3744616,53.5671469 85.166829,53.0175959 L85.1776045,52.9637184 L70.5040535,49.3000449 L67.6727882,60.6641673 C67.6727882,60.6641673 75.5671963,62.4731061 75.4001759,62.586249 C79.71038,63.6624531 80.4875637,66.5139224 80.3582576,68.7740857 L75.3947882,88.6885755 C75.6911147,88.765351 76.0749922,88.8717592 76.5006249,89.0441673 C76.1450331,88.9552694 75.7665433,88.8596367 75.377278,88.765351 L68.4189922,116.660453 C67.8909922,117.969678 66.553482,119.934861 63.5417269,119.188657 C63.6481351,119.342208 55.8035637,117.258494 55.8035637,117.258494 L50.5235637,129.436167 L64.3700943,132.888371 C66.9440943,133.533555 69.4722984,134.207024 71.9560535,134.845473 L67.5556045,152.526739 L78.1842984,155.178861 L82.5443392,137.686167 C85.4510331,138.47278 88.268829,139.201473 91.0273596,139.887065 L86.6821351,157.297596 L97.3229514,159.949718 L101.727441,142.302127 C119.874747,145.734127 133.520584,144.349473 139.261237,127.939718 C143.890666,114.726249 139.032258,107.103922 129.485156,102.132371 C136.436707,100.529514 141.676298,95.9553102 143.073074,86.5105755 L143.073074,86.5105755 Z M118.762176,120.602943 C115.470258,133.817759 93.2242167,126.673596 86.0073188,124.88082 L91.8503392,101.458902 C99.0631963,103.257065 122.19687,106.821065 118.762176,120.602943 Z M122.048707,86.3206571 C119.050421,98.3407388 100.53136,92.2323714 94.5240127,90.7345755 L99.8201759,69.4906571 C105.826176,70.9884531 125.174951,73.783351 122.048707,86.3206571 Z" id="Combined-Shape"></path>
        </g>
    </g>
</svg>