<?xml version="1.0" encoding="UTF-8"?>
<svg width="200px" height="200px" viewBox="0 0 200 200" version="1.1" xmlns="http://www.w3.org/2000/svg" xmlns:xlink="http://www.w3.org/1999/xlink">
    <!-- Generator: Sketch 43.1 (39012) - http://www.bohemiancoding.com/sketch -->
    <title>Artboard</title>
    <desc>Created with Sketch.</desc>
    <defs></defs>
    <g id="Page-1" stroke="none" stroke-width="1" fill="none" fill-rule="evenodd">
        <g id="Artboard" fill-rule="nonzero" fill="#000000">
            <path d="M192.209743,99.9939386 C197.510433,93.3826679 199.794052,84.7147116 198.248783,76.1916498 C196.631678,67.2730873 191.15834,59.7969393 183.447504,55.5611221 C185.9703,46.7670464 184.313605,37.1174809 178.690882,29.6180682 C173.128566,22.2015106 164.270002,17.7734531 154.993897,17.7734531 C153.67801,17.7734531 152.369062,17.8612061 151.072766,18.0354877 C146.518998,7.30145829 135.874762,0 123.834233,0 C114.285074,0 105.778746,4.54560573 100.36459,11.5870702 C94.9504333,4.54560573 86.4441058,0 76.8949461,0 C64.8491113,0 54.2007942,7.30798874 49.6502906,18.0501812 C48.3507298,17.8763078 47.0377,17.7889629 45.7152826,17.7889629 C36.2999972,17.7889629 27.6663258,22.1035538 22.0285013,29.6278639 C16.40986,37.1272766 14.7552056,46.7760258 17.2771862,55.568877 C9.56594177,59.8042861 4.09341939,67.2820667 2.47631516,76.2059352 C0.934719318,84.7269562 3.21997087,93.3916472 8.51943614,100.001285 C3.21874641,106.612556 0.934719318,115.280104 2.48039669,123.803982 C4.09750093,132.722545 9.57083961,140.198285 17.2812677,144.433694 C14.7584708,153.228177 16.415166,162.877743 22.0378888,170.377156 C27.6006131,177.793713 36.4591771,182.221771 45.7348739,182.221771 C47.0503527,182.221771 48.359301,182.134018 49.6555966,181.959736 C54.2097736,192.694174 64.853601,199.995224 76.8949461,199.995224 C86.4436977,199.995224 94.9500251,195.449618 100.36459,188.408154 C105.778746,195.449618 114.285074,199.995224 123.834233,199.995224 C135.880476,199.995224 146.528793,192.687235 151.078889,181.945043 C152.37845,182.118916 153.691479,182.206261 155.013897,182.206261 C164.429182,182.206261 173.06367,177.891262 178.701086,170.36736 C184.319319,162.867947 185.973974,153.219198 183.451993,144.426755 C191.163646,140.190938 196.63576,132.713157 198.253681,123.789289 C199.79446,115.268268 197.509209,106.603577 192.209743,99.9939386 Z M94.2422869,170.404094 C94.2422869,179.969172 86.4600238,187.750618 76.8949461,187.750618 C68.6082052,187.750618 61.4508251,181.8528 59.8761689,173.726872 L59.7929055,173.297494 C59.6337257,172.347313 59.5492379,171.376315 59.5492379,170.404094 C59.5492379,167.579263 60.2235075,164.859328 61.4891916,162.422652 C66.0923469,165.250339 71.3963019,166.76663 76.9349452,166.766222 L76.9341288,154.521616 C72.300362,154.522024 67.9441395,152.717577 64.667483,149.440921 C61.3916429,146.165081 59.5871962,141.809675 59.586788,137.176316 L47.3421825,137.177949 C47.3425906,143.179846 49.12214,148.906648 52.4236938,153.763267 C49.1907098,158.496215 47.4136093,164.060572 47.316877,169.902473 C46.7919915,169.951043 46.2646572,169.977165 45.7352821,169.977165 C40.2117405,169.977165 35.1449227,167.445389 31.8343896,163.031209 C27.7602011,157.597461 27.2389891,150.23478 30.5066662,144.274514 L31.960509,141.62274 L29.4850579,135.981651 L26.7369603,135.176772 C20.3856834,133.316816 15.7082441,128.122246 14.5290885,121.619545 C13.4968683,115.926211 15.3866191,110.127574 19.4799907,106.119915 L47.9409437,106.119915 C49.106222,111.687537 51.8543196,116.804558 55.9697315,120.920786 C61.3381748,126.269638 68.7367736,129.588742 76.8957624,129.588742 L94.2422869,129.588742 L94.2422869,170.404094 L94.2422869,170.404094 Z M94.2422869,117.344136 L76.8957624,117.344136 C67.6588402,117.344136 60.0867761,110.086351 59.5782168,100.973915 C59.5765842,100.943712 59.573319,100.913917 59.5716863,100.883305 C59.5569928,100.589843 59.5492379,100.294748 59.5492379,99.9980201 C59.5492379,95.3642532 61.3540928,91.0084389 64.630341,87.7325987 L55.9725886,79.0736218 C51.8559522,83.1898501 49.1074464,88.3072789 47.9413518,93.8753092 L19.472644,93.8753092 C15.3841702,89.8688742 13.496052,84.0747269 14.5245989,78.3875158 C15.7037544,71.8815487 20.3816018,66.6849381 26.7324706,64.8257988 L29.4813845,64.0213282 L31.9560193,58.3802385 L30.5021765,55.7288732 C27.2349076,49.7686074 27.7548951,42.4051098 31.8270428,36.9701375 C35.1302292,32.5616714 40.1921491,30.0335685 45.7144662,30.0335685 C46.2515963,30.0335685 46.7858692,30.0600985 47.3164688,30.1090769 C47.4160583,35.945264 49.1927505,41.5034986 52.4228775,46.2323653 C49.1213237,51.088984 47.3417743,56.8153779 47.3413662,62.8176835 L59.5859717,62.8193161 C59.5863799,58.1859574 61.3908266,53.8309593 64.6666667,50.5547111 C67.9433232,47.2784628 72.2991375,45.4740161 76.9320881,45.4740161 C76.9333125,45.4740161 76.9341288,33.2294105 76.9341288,33.2294105 C71.3942611,33.2294105 66.0915306,34.7457008 61.4883753,37.5729803 C60.2230994,35.1358956 59.5492379,32.4159606 59.5492379,29.5911301 C59.5492379,28.6225818 59.6333175,27.6548498 59.7912729,26.7083418 L59.876577,26.2687604 C61.4508251,18.1424239 68.6086134,12.2446055 76.8949461,12.2446055 C86.4600238,12.2446055 94.2422869,20.0260524 94.2422869,29.5911301 L94.2422869,117.344136 L94.2422869,117.344136 Z M106.486892,29.5919464 C106.486892,20.0260524 114.268747,12.2446055 123.834233,12.2446055 C132.120974,12.2446055 139.278354,18.1424239 140.853419,26.2687604 L140.935458,26.6928319 C141.095046,27.6446459 141.179942,28.6172758 141.179942,29.5911301 C141.179942,32.4159606 140.50608,35.1358956 139.239988,37.5725721 C134.636832,34.7452927 129.332878,33.2285942 123.794234,33.2290024 L123.795051,45.4736079 C128.428817,45.4731998 132.784632,47.2776465 136.061696,50.5547111 C139.337537,53.8297349 141.141575,58.1855492 141.142391,62.818908 L153.386997,62.8172754 C153.386181,56.8149697 151.606631,51.0881677 148.305486,46.2319571 C151.53847,41.499009 153.31557,35.934652 153.412302,30.0931589 C153.937188,30.0445886 154.464522,30.0184668 154.994305,30.0184668 C160.517847,30.0184668 165.584257,32.5502431 168.895198,36.9644234 C172.968978,42.3981712 173.490598,49.7608525 170.222921,55.7211183 L168.765813,58.3794222 L169.996396,61.1495601 L171.245346,64.0143896 L173.993444,64.8192684 C180.344721,66.6792239 185.02216,71.8737938 186.200907,78.3769038 C187.233536,84.069829 185.343785,89.8688742 181.249597,93.8761255 L152.788644,93.8761255 C151.623366,88.3085033 148.875268,83.1914827 144.759448,79.0748463 C139.390596,73.7264026 131.992406,70.4072982 123.833417,70.4072982 L106.486892,70.4072982 L106.486892,29.5919464 L106.486892,29.5919464 Z M186.204172,121.6073 C185.024609,128.113675 180.347169,133.310286 173.996709,135.169425 L171.254325,135.972263 L168.776017,141.621516 L170.226187,144.266351 C173.493864,150.226616 172.973468,157.590114 168.901728,163.025086 C165.598134,167.433961 160.536622,169.962064 155.013897,169.961655 C154.476767,169.961655 153.942902,169.935125 153.412302,169.886147 C153.312713,164.050368 151.535613,158.491725 148.305894,153.763267 C151.607448,148.906648 153.386589,143.180254 153.387813,137.177949 L141.143208,137.176316 C141.142391,141.809675 139.338353,146.165081 136.062105,149.440921 C132.786264,152.717169 128.43045,154.521616 123.797091,154.521616 C123.795867,154.521616 123.795051,166.766222 123.795051,166.766222 C129.334918,166.766222 134.638057,165.249931 139.240804,162.422652 C140.506488,164.859328 141.180758,167.579263 141.180758,170.404094 C141.180758,171.37754 141.095862,172.35017 140.936274,173.302392 L140.853827,173.72728 C139.278354,181.8528 132.120566,187.750618 123.834233,187.750618 C114.268747,187.750618 106.486892,179.969172 106.486892,170.404094 L106.486892,82.6510874 L123.833417,82.6510874 C133.070339,82.6510874 140.642403,89.9088733 141.150963,99.0213087 C141.152595,99.0515121 141.15586,99.0813073 141.157493,99.1119188 C141.172187,99.4053812 141.179942,99.7004762 141.179942,99.9972038 C141.179942,104.630971 139.375495,108.986785 136.098838,112.262625 L144.756183,120.921602 C148.872819,116.805374 151.622141,111.687945 152.787828,106.119915 L181.256535,106.119915 C185.344601,110.12635 187.233127,115.920497 186.204172,121.6073 Z" id="Shape"></path>
        </g>
    </g>
</svg>