<?xml version="1.0" encoding="UTF-8"?>
<svg width="200px" height="200px" viewBox="0 0 200 200" version="1.1" xmlns="http://www.w3.org/2000/svg" xmlns:xlink="http://www.w3.org/1999/xlink">
    <!-- Generator: Sketch 43.1 (39012) - http://www.bohemiancoding.com/sketch -->
    <title>Shape</title>
    <desc>Created with Sketch.</desc>
    <defs></defs>
    <g id="Page-1" stroke="none" stroke-width="1" fill="none" fill-rule="evenodd">
        <g id="Artboard" fill="#000000">
            <path d="M85.8833333,154.4 L108.363333,154.4 L108.363333,99.9933333 L123.36,99.9933333 L125.346667,81.2466667 L108.363333,81.2466667 L108.386667,71.86 C108.386667,66.9733333 108.853333,64.35 115.866667,64.35 L125.24,64.35 L125.24,45.6 L110.24,45.6 C92.2233333,45.6 85.8833333,54.6966667 85.8833333,69.99 L85.8833333,81.2466667 L74.6533333,81.2466667 L74.6533333,99.9966667 L85.8833333,99.9966667 L85.8833333,154.4 L85.8833333,154.4 Z M100,200 C44.7733333,200 0,155.226667 0,100 C0,44.77 44.7733333,0 100,0 C155.226667,0 200,44.77 200,100 C200,155.226667 155.226667,200 100,200 Z" id="Shape"></path>
        </g>
    </g>
</svg>