<?xml version="1.0" encoding="UTF-8"?>
<svg width="200px" height="200px" viewBox="0 0 200 200" version="1.1" xmlns="http://www.w3.org/2000/svg" xmlns:xlink="http://www.w3.org/1999/xlink">
    <!-- Generator: Sketch 43.1 (39012) - http://www.bohemiancoding.com/sketch -->
    <title>Artboard</title>
    <desc>Created with Sketch.</desc>
    <defs></defs>
    <g id="Page-1" stroke="none" stroke-width="1" fill="none" fill-rule="evenodd">
        <g id="Artboard" fill-rule="nonzero" fill="#000000">
            <g id="github" transform="translate(1.000000, 3.000000)">
                <path d="M99.5,0 C44.5515137,0 0,44.519019 0,99.4274274 C0,143.363864 28.50675,180.624875 68.0478945,193.769297 C73.0217285,194.67968 74.8376035,191.608887 74.8376035,188.987265 C74.8376035,186.620426 74.74646,178.78003 74.697876,170.478228 C47.0292969,176.486014 41.1809512,158.753754 41.1809512,158.753754 C36.6505918,147.272022 30.1341191,144.213463 30.1341191,144.213463 C21.0914736,138.047798 30.820125,138.169169 30.820125,138.169169 C40.8101582,138.860889 46.069666,148.412913 46.069666,148.412913 C54.9484863,163.608609 69.3656865,159.214965 75.0257207,156.666166 C75.9301602,150.257758 78.5051113,145.864114 81.3416387,143.388138 C59.2541934,140.875848 36.019,132.343343 36.019,94.2447728 C36.019,83.3819379 39.8996943,74.522022 46.2519531,67.5613253 C45.2377139,65.0368008 41.812543,54.9204484 47.2356816,41.235972 C47.2356816,41.235972 55.5800781,38.5658018 74.6005137,51.4311672 C82.531752,49.2161882 91.040168,48.1238458 99.4998057,48.0873373 C107.953419,48.1238458 116.467665,49.2282282 124.411341,51.4432072 C143.39563,38.5658018 151.752075,41.248012 151.752075,41.248012 C157.193481,54.9447227 153.768311,65.0488408 152.748047,67.5613253 C159.124598,74.522022 162.974976,83.3821321 162.974976,94.2447728 C162.974976,132.44044 139.703247,140.851379 117.536901,143.315315 C121.120067,146.398148 124.290075,152.442442 124.290075,161.715215 C124.290075,175.005477 124.156372,185.722472 124.156372,188.999499 C124.156372,191.645395 125.966028,194.740268 131.006714,193.769297 C170.517736,180.600601 199,143.33959 199,99.4274274 C199,44.519019 154.448486,0 99.5,0 Z" id="Shape"></path>
            </g>
        </g>
    </g>
</svg>