<?xml version="1.0" encoding="UTF-8"?>
<svg width="200px" height="192px" viewBox="0 0 200 192" version="1.1" xmlns="http://www.w3.org/2000/svg" xmlns:xlink="http://www.w3.org/1999/xlink">
    <!-- Generator: Sketch 43.1 (39012) - http://www.bohemiancoding.com/sketch -->
    <title>like</title>
    <desc>Created with Sketch.</desc>
    <defs></defs>
    <g id="Page-1" stroke="none" stroke-width="1" fill="none" fill-rule="evenodd">
        <g id="Artboard" transform="translate(0.000000, -4.000000)" fill-rule="nonzero" fill="#000000">
            <g id="like" transform="translate(0.000000, 4.000000)">
                <path d="M32.6476562,61.3681951 L6.5296875,61.3681951 C2.9390625,61.3681951 0,64.289561 0,67.891122 L0,185.308098 C0,188.908098 2.92617187,191.830244 6.5296875,191.830244 L32.6476562,191.830244 C36.2511719,191.830244 39.1773437,188.907707 39.1773437,185.308098 L39.1773437,67.891122 C39.1773437,64.289561 36.2378906,61.3681951 32.6476562,61.3681951 Z" id="Shape"></path>
                <path d="M183.697656,61.3681951 C182.646094,61.1902439 133.408984,61.3681951 133.408984,61.3681951 L140.286328,42.624 C145.031641,29.6780488 141.959375,9.91102439 128.792578,2.8835122 C124.505469,0.595121951 118.515625,-0.554146341 113.686328,0.660292683 C110.916797,1.3564878 108.482812,3.18829268 107.032031,5.64253659 C105.363672,8.46517073 105.535938,11.76 104.941797,14.8897561 C103.435156,22.8280976 99.6804688,30.3758049 93.8660156,36.0409756 C83.7285156,45.918439 52.2367188,74.4140488 52.2367188,74.4140488 L52.2367188,178.78478 L161.062109,178.78478 C175.746484,178.793366 185.369922,162.410927 178.127344,149.614439 C186.760547,144.090537 189.713281,132.455415 184.657031,123.521951 C193.290625,117.998049 196.242969,106.362927 191.186719,97.4294634 C206.082812,87.8985366 201.102734,64.3090732 183.697656,61.3681951 Z" id="Shape"></path>
            </g>
        </g>
    </g>
</svg>