<?xml version="1.0" encoding="UTF-8"?>
<svg width="200px" height="200px" viewBox="0 0 200 200" version="1.1" xmlns="http://www.w3.org/2000/svg" xmlns:xlink="http://www.w3.org/1999/xlink">
    <!-- Generator: Sketch 43.1 (39012) - http://www.bohemiancoding.com/sketch -->
    <title>Artboard</title>
    <desc>Created with Sketch.</desc>
    <defs></defs>
    <g id="Page-1" stroke="none" stroke-width="1" fill="none" fill-rule="evenodd">
        <g id="Artboard" fill-rule="nonzero">
            <g id="metamask" transform="translate(5.000000, 1.000000)">
                <polygon id="Shape" stroke="#E4761B" fill="#E4761B" points="180.052109 136.993317 168.548387 175.978998 145.965261 169.788544"></polygon>
                <polygon id="Shape" stroke="#E4761B" fill="#E4761B" points="145.965261 169.788544 167.746898 139.875895 180.052109 136.993317"></polygon>
                <path d="M163.126551,107.600477 L180.052109,136.993317 L167.746898,139.875895 L163.126551,107.600477 Z M163.126551,107.600477 L174.01737,100.039618 L180.052109,136.993317 L163.126551,107.600477 Z" id="Shape" stroke="#F6851B" fill="#F6851B"></path>
                <path d="M149.265509,85.3904535 L180.57072,72.5369928 L179.014888,79.578043 L149.265509,85.3904535 Z M178.024814,88.0367542 L149.265509,85.3904535 L179.014888,79.578043 L178.024814,88.0367542 Z" id="Shape" stroke="#763D16" fill="#763D16"></path>
                <path d="M178.024814,88.0367542 L174.01737,100.039618 L149.265509,85.3904535 L178.024814,88.0367542 Z M184.295285,75.5140811 L179.014888,79.578043 L180.57072,72.5369928 L184.295285,75.5140811 Z M178.024814,88.0367542 L179.014888,79.578043 L183.210918,83.0749403 L178.024814,88.0367542 Z" id="Shape" stroke="#763D16" fill="#763D16"></path>
                <polygon id="Shape" stroke="#E2761B" fill="#E2761B" points="121.684864 160.290215 129.511166 162.794749 145.965261 169.788544"></polygon>
                <path d="M174.01737,100.039618 L178.024814,88.0367542 L181.466501,90.6830549 L174.01737,100.039618 Z M174.01737,100.039618 L141.533499,89.3126492 L149.265509,85.3904535 L174.01737,100.039618 Z" id="Shape" stroke="#763D16" fill="#763D16"></path>
                <polygon id="Shape" stroke="#763D16" fill="#763D16" points="156.997519 48.5785203 149.265509 85.3904535 141.533499 89.3126492"></polygon>
                <polygon id="Shape" stroke="#763D16" fill="#763D16" points="180.57072 72.5369928 149.265509 85.3904535 156.997519 48.5785203"></polygon>
                <polygon id="Shape" stroke="#763D16" fill="#763D16" points="156.997519 48.5785203 189.669975 44.7980907 180.57072 72.5369928"></polygon>
                <polygon id="Shape" stroke="#F6851B" fill="#F6851B" points="174.01737 100.039618 163.126551 107.600477 141.533499 89.3126492"></polygon>
                <polygon id="Shape" stroke="#763D16" fill="#763D16" points="188.255583 18.2878282 189.669975 44.7980907 156.997519 48.5785203"></polygon>
                <polygon id="Shape" stroke="#E2761B" fill="#E2761B" points="188.255583 18.2878282 122.957816 65.8739857 122.109181 33.598568"></polygon>
                <polygon id="Shape" stroke="#F6851B" fill="#F6851B" points="73.5483871 29.7236277 122.109181 33.598568 122.957816 65.8739857"></polygon>
                <polygon id="Shape" stroke="#763D16" fill="#763D16" points="141.533499 89.3126492 122.957816 65.8739857 156.997519 48.5785203"></polygon>
                <polygon id="Shape" stroke="#E4761B" fill="#E4761B" points="141.533499 89.3126492 163.126551 107.600477 132.811414 110.955609"></polygon>
                <polygon id="Shape" stroke="#E4761B" fill="#E4761B" points="132.811414 110.955609 122.957816 65.8739857 141.533499 89.3126492"></polygon>
                <polygon id="Shape" stroke="#763D16" fill="#763D16" points="156.997519 48.5785203 122.957816 65.8739857 188.255583 18.2878282"></polygon>
                <polygon id="Shape" stroke="#C0AD9E" fill="#C0AD9E" points="73.9727047 169.032458 89.3895782 185.146539 68.4094293 166.008115"></polygon>
                <polygon id="Shape" stroke="#CD6116" fill="#CD6116" points="145.965261 169.788544 153.272953 141.955131 167.746898 139.875895"></polygon>
                <polygon id="Shape" stroke="#E2761B" fill="#E2761B" points="11.4565757 91.4863962 38.1414392 63.3694511 14.898263 88.1312649"></polygon>
                <path d="M167.746898,139.875895 L153.272953,141.955131 L163.126551,107.600477 L167.746898,139.875895 Z M122.957816,65.8739857 L96.9801489,65.023389 L73.5483871,29.7236277 L122.957816,65.8739857 Z" id="Shape" stroke="#F6851B" fill="#F6851B"></path>
                <polygon id="Shape" stroke="#E4751F" fill="#E4751F" points="163.126551 107.600477 153.272953 141.955131 152.471464 125.179475"></polygon>
                <polygon id="Shape" stroke="#CD6116" fill="#CD6116" points="132.811414 110.955609 163.126551 107.600477 152.471464 125.179475"></polygon>
                <polygon id="Shape" stroke="#F6851B" fill="#F6851B" points="96.9801489 65.023389 122.957816 65.8739857 132.811414 110.955609"></polygon>
                <path d="M96.9801489,65.023389 L26.8734491,0 L73.5483871,29.7236277 L96.9801489,65.023389 Z M73.5012407,178.908831 L12.5880893,197.810979 L0.424317618,151.264439 L73.5012407,178.908831 Z" id="Shape" stroke="#E4761B" fill="#E4761B"></path>
                <polygon id="Shape" stroke="#763D16" fill="#763D16" points="20.5086849 103.111217 43.516129 85.0124105 62.7990074 89.5016706"></polygon>
                <polygon id="Shape" stroke="#763D16" fill="#763D16" points="62.7990074 89.5016706 43.516129 85.0124105 53.8411911 42.2935561"></polygon>
                <polygon id="Shape" stroke="#763D16" fill="#763D16" points="14.898263 88.1312649 43.516129 85.0124105 20.5086849 103.111217"></polygon>
                <polygon id="Shape" stroke="#CD6116" fill="#CD6116" points="152.471464 125.179475 140.590571 119.178043 132.811414 110.955609"></polygon>
                <polygon id="Shape" stroke="#763D16" fill="#763D16" points="14.898263 88.1312649 12.8709677 77.4042959 43.516129 85.0124105"></polygon>
                <polygon id="Shape" stroke="#233447" fill="#233447" points="138.138958 132.693079 140.590571 119.178043 152.471464 125.179475"></polygon>
                <polygon id="Shape" stroke="#F6851B" fill="#F6851B" points="153.272953 141.955131 138.138958 132.693079 152.471464 125.179475"></polygon>
                <path d="M43.516129,85.0124105 L12.8709677,77.4042959 L10.3722084,68.3785203 L43.516129,85.0124105 Z M53.8411911,42.2935561 L43.516129,85.0124105 L10.3722084,68.3785203 L53.8411911,42.2935561 Z M53.8411911,42.2935561 L96.9801489,65.023389 L62.7990074,89.5016706 L53.8411911,42.2935561 Z" id="Shape" stroke="#763D16" fill="#763D16"></path>
                <path d="M62.7990074,89.5016706 L96.9801489,65.023389 L112.208437,111.664439 L62.7990074,89.5016706 Z M112.208437,111.664439 L64.9677419,110.672076 L62.7990074,89.5016706 L112.208437,111.664439 Z" id="Shape" stroke="#E4761B" fill="#E4761B"></path>
                <path d="M20.5086849,103.111217 L62.7990074,89.5016706 L64.9677419,110.672076 L20.5086849,103.111217 Z M132.811414,110.955609 L112.208437,111.664439 L96.9801489,65.023389 L132.811414,110.955609 Z" id="Shape" stroke="#F6851B" fill="#F6851B"></path>
                <polygon id="Shape" stroke="#CD6116" fill="#CD6116" points="140.590571 119.178043 138.138958 132.693079 132.811414 110.955609"></polygon>
                <polygon id="Shape" stroke="#763D16" fill="#763D16" points="26.8734491 0 96.9801489 65.023389 53.8411911 42.2935561"></polygon>
                <polygon id="Shape" stroke="#E4761B" fill="#E4761B" points="0.424317618 151.264439 59.5459057 148.80716 73.5012407 178.908831"></polygon>
                <polygon id="Shape" stroke="#CD6116" fill="#CD6116" points="73.5012407 178.908831 59.5459057 148.80716 88.5880893 147.389499"></polygon>
                <path d="M138.138958,132.693079 L153.272953,141.955131 L161.617866,161.660621 L138.138958,132.693079 Z M64.9677419,110.672076 L0.424317618,151.264439 L20.5086849,103.111217 L64.9677419,110.672076 Z M59.5459057,148.80716 L0.424317618,151.264439 L64.9677419,110.672076 L59.5459057,148.80716 Z M132.811414,110.955609 L136.677419,125.037709 L118.007444,126.124582 L132.811414,110.955609 Z M118.007444,126.124582 L112.208437,111.664439 L132.811414,110.955609 L118.007444,126.124582 Z" id="Shape" stroke="#F6851B" fill="#F6851B"></path>
                <polygon id="Shape" stroke="#C0AD9E" fill="#C0AD9E" points="89.3895782 185.146539 73.5012407 178.908831 128.756824 188.218138"></polygon>
                <polygon id="Shape" stroke="#763D16" fill="#763D16" points="20.5086849 103.111217 11.4565757 91.4863962 14.898263 88.1312649"></polygon>
                <polygon id="Shape" stroke="#D7C1B3" fill="#D7C1B3" points="135.027295 181.318854 128.756824 188.218138 73.5012407 178.908831"></polygon>
                <polygon id="Shape" stroke="#E4761B" fill="#E4761B" points="137.997519 164.401432 73.5012407 178.908831 88.5880893 147.389499"></polygon>
                <polygon id="Shape" stroke="#D7C1B3" fill="#D7C1B3" points="73.5012407 178.908831 137.997519 164.401432 135.027295 181.318854"></polygon>
                <path d="M10.3722084,68.3785203 L8.25062035,32.0391408 L53.8411911,42.2935561 L10.3722084,68.3785203 Z M14.898263,88.1312649 L8.62779156,81.75179 L12.8709677,77.4042959 L14.898263,88.1312649 Z" id="Shape" stroke="#763D16" fill="#763D16"></path>
                <polygon id="Shape" stroke="#CD6116" fill="#CD6116" points="101.647643 121.021002 112.208437 111.664439 110.699752 134.536038"></polygon>
                <polygon id="Shape" stroke="#CD6116" fill="#CD6116" points="112.208437 111.664439 101.647643 121.021002 86.2779156 129.00716"></polygon>
                <polygon id="Shape" stroke="#F6851B" fill="#F6851B" points="161.617866 161.660621 158.741935 159.534129 138.138958 132.693079"></polygon>
                <polygon id="Shape" stroke="#CD6116" fill="#CD6116" points="86.2779156 129.00716 64.9677419 110.672076 112.208437 111.664439"></polygon>
                <polygon id="Shape" stroke="#E4751F" fill="#E4751F" points="110.699752 134.536038 112.208437 111.664439 118.007444 126.124582"></polygon>
                <polygon id="Shape" stroke="#763D16" fill="#763D16" points="6.55334988 71.9699284 10.3722084 68.3785203 12.8709677 77.4042959"></polygon>
                <polygon id="Shape" stroke="#233447" fill="#233447" points="110.699752 134.536038 86.2779156 129.00716 101.647643 121.021002"></polygon>
                <polygon id="Shape" stroke="#763D16" fill="#763D16" points="53.8411911 42.2935561 8.25062035 32.0391408 26.8734491 0"></polygon>
                <polygon id="Shape" stroke="#C0AD9E" fill="#C0AD9E" points="128.756824 188.218138 131.349876 195.306444 89.3895782 185.146539"></polygon>
                <polygon id="Shape" stroke="#F6851B" fill="#F6851B" points="88.5880893 147.389499 86.2779156 129.00716 110.699752 134.536038"></polygon>
                <polygon id="Shape" stroke="#E4751F" fill="#E4751F" points="64.9677419 110.672076 86.2779156 129.00716 88.5880893 147.389499"></polygon>
                <path d="M118.007444,126.124582 L136.677419,125.037709 L158.741935,159.534129 L118.007444,126.124582 Z M64.9677419,110.672076 L88.5880893,147.389499 L59.5459057,148.80716 L64.9677419,110.672076 Z" id="Shape" stroke="#F6851B" fill="#F6851B"></path>
                <polygon id="Shape" stroke="#E4751F" fill="#E4751F" points="118.007444 126.124582 141.203474 161.518854 110.699752 134.536038"></polygon>
                <polygon id="Shape" stroke="#F6851B" fill="#F6851B" points="110.699752 134.536038 141.203474 161.518854 137.997519 164.401432"></polygon>
                <path d="M137.997519,164.401432 L88.5880893,147.389499 L110.699752,134.536038 L137.997519,164.401432 Z M158.741935,159.534129 L141.203474,161.518854 L118.007444,126.124582 L158.741935,159.534129 Z" id="Shape" stroke="#F6851B" fill="#F6851B"></path>
                <path d="M163.362283,176.168019 L155.818859,191.336993 L131.349876,195.306444 L163.362283,176.168019 Z M131.349876,195.306444 L128.756824,188.218138 L135.027295,181.318854 L131.349876,195.306444 Z" id="Shape" stroke="#C0AD9E" fill="#C0AD9E"></path>
                <path d="M135.027295,181.318854 L139.647643,179.475895 L131.349876,195.306444 L135.027295,181.318854 Z M131.349876,195.306444 L139.647643,179.475895 L163.362283,176.168019 L131.349876,195.306444 Z" id="Shape" stroke="#C0AD9E" fill="#C0AD9E"></path>
                <polygon id="Shape" stroke="#161616" fill="#161616" points="158.741935 159.534129 164.540943 163.078282 146.908189 165.204773"></polygon>
                <path d="M146.908189,165.204773 L141.203474,161.518854 L158.741935,159.534129 L146.908189,165.204773 Z M144.880893,167.99284 L166.332506,165.393795 L163.362283,176.168019 L144.880893,167.99284 Z" id="Shape" stroke="#161616" fill="#161616"></path>
                <path d="M163.362283,176.168019 L139.647643,179.475895 L144.880893,167.99284 L163.362283,176.168019 Z M139.647643,179.475895 L135.027295,181.318854 L137.997519,164.401432 L139.647643,179.475895 Z M137.997519,164.401432 L141.203474,161.518854 L146.908189,165.204773 L137.997519,164.401432 Z M164.540943,163.078282 L166.332506,165.393795 L144.880893,167.99284 L164.540943,163.078282 Z" id="Shape" stroke="#161616" fill="#161616"></path>
                <path d="M144.880893,167.99284 L146.908189,165.204773 L164.540943,163.078282 L144.880893,167.99284 Z M137.997519,164.401432 L144.880893,167.99284 L139.647643,179.475895 L137.997519,164.401432 Z" id="Shape" stroke="#161616" fill="#161616"></path>
                <polygon id="Shape" stroke="#161616" fill="#161616" points="146.908189 165.204773 144.880893 167.99284 137.997519 164.401432"></polygon>
            </g>
        </g>
    </g>
</svg>